<svg version="1.1" xmlns="http://www.w3.org/2000/svg" xmlns:xlink="http://www.w3.org/1999/xlink" width="48" height="48"><defs><linearGradient x1="14.22989" y1="14.67489" x2="34.12366" y2="33.67867" gradientUnits="userSpaceOnUse" id="color-1"><stop offset="1" stop-color="#000000" stop-opacity="0"></stop><stop offset="1" stop-color="#000000" stop-opacity="0"></stop></linearGradient><filter id="dropshadow-base"><feColorMatrix type="matrix" values="0 0 0 0 0  0 0 0 0 0  0 0 0 0 0  0 0 0 .8 0"></feColorMatrix> <feOffset dx="0" dy="1"></feOffset> <feGaussianBlur stdDeviation="1"></feGaussianBlur> <feComposite in="SourceGraphic"></feComposite></filter><filter id="dropshadow-banner" x="-10%" y="-10%" width="120%" height="130%"><feColorMatrix type="matrix" values="0 0 0 0 0  0 0 0 0 0  0 0 0 0 0  0 0 0 .4 0"></feColorMatrix> <feOffset dx="0" dy="1"></feOffset> <feGaussianBlur stdDeviation="0.5"></feGaussianBlur> <feComposite in="SourceGraphic"></feComposite></filter></defs><g fill="none" fill-rule="none" stroke="none" stroke-width="none" stroke-linecap="butt" stroke-linejoin="miter" stroke-miterlimit="10" stroke-dasharray="" stroke-dashoffset="0" font-family="none" font-weight="none" font-size="none" text-anchor="none" style="mix-blend-mode: normal"><path d="M2,24c0,-12.15026 9.84974,-22 22,-22c12.15026,0 22,9.84974 22,22c0,12.15026 -9.84974,22 -22,22c-12.15026,0 -22,-9.84974 -22,-22z" id="base 1 9" fill="#1976d2" fill-rule="nonzero" stroke-width="1"></path><path d="M18.1934,31.63742c0.27896,0.33079 0.27237,0.35197 -0.2243,0.72017c-0.48438,0.3591 -0.76231,0.71365 -0.8056,0.9649c0.02375,0.00174 0.04871,0.00262 0.07488,0.00262c0.23715,0 1.67756,-0.2683 2.03127,-0.37836c0.10341,-0.03215 0.51234,-0.11526 0.90875,-0.18464c3.0927,-0.54149 5.82453,-0.46453 8.86816,0.24975c1.46554,0.34395 1.89145,0.38318 2.06594,0.1904c0.14175,-0.15663 0.09904,-0.37905 -0.1158,-0.64677c-0.07548,-0.06414 -0.15852,-0.12995 -0.24899,-0.19722c-0.15508,-0.11531 -0.26298,-0.19667 -0.32994,-0.26363l-0.35355,-0.35355c-0.15095,-0.15095 -0.09382,-0.22869 0.0998,-0.45723c0.76799,-0.90649 2.25207,-3.50834 2.80365,-4.9154c0.26668,-0.68019 0.35554,-0.99292 0.58862,-2.07026c0.43269,-1.99994 0.16533,-7.89009 -0.41402,-9.12261c-0.02241,-0.04767 -0.04453,-0.09195 -0.06668,-0.13284c-0.24574,-0.06822 -0.59387,0.10681 -1.22135,0.52976c-3.59351,2.42223 -5.72814,6.23987 -6.12912,10.96149c-0.12647,1.48929 -0.02933,2.54068 0.3316,3.58856c0.06837,0.19855 0.11532,0.42417 0.10435,0.50138l-0.01993,0.14045h-3.57232l-0.35355,-0.35355l0.00896,-0.21936c0.00495,-0.12064 0.09733,-0.50138 0.20538,-0.84608c1.06387,-3.39532 -0.82594,-9.29213 -3.78677,-12.40601c-0.19168,-0.18192 -0.38731,-0.35197 -0.58643,-0.50883c-1.46071,-1.15066 -2.23954,-1.5514 -2.54626,-1.3101l-0.00001,-0.00001c-0.98583,0.77549 -1.27274,7.90946 -0.43005,10.6928c0.49035,1.6194 2.08813,4.60843 3.11332,5.82416zM17.70284,16.07702c0.26098,0.20558 0.51597,0.43383 0.7639,0.68176l0.35355,0.35355c3.06137,3.06137 5.04767,9.12448 3.96286,12.58663c-0.0811,0.25874 -0.15337,0.53778 -0.18647,0.71189l3.19091,0l0.01993,-0.14045c0.01096,-0.07721 -0.03598,-0.30283 -0.10435,-0.50138c-0.36093,-1.04788 -0.45807,-2.09927 -0.3316,-3.58856c0.40098,-4.72162 2.53561,-8.53926 6.12912,-10.96149c0.80126,-0.54009 1.14701,-0.67592 1.40572,-0.4172l0.35355,0.35355c0.08356,0.08356 0.15804,0.20828 0.23586,0.37383c0.57935,1.23252 0.84671,7.12266 0.41402,9.12261c-0.23308,1.07734 -0.32194,1.39007 -0.58862,2.07026c-0.55158,1.40706 -2.03566,4.00891 -2.80365,4.9154c-0.12894,0.15218 -0.19734,0.2375 -0.18409,0.32209c0.01936,0.01448 0.03958,0.02953 0.06067,0.04521c0.17817,0.13248 0.3275,0.25927 0.44709,0.37886l0.35355,0.35355c0.34471,0.34471 0.44235,0.62963 0.27126,0.81868c-0.17448,0.19278 -0.6004,0.15355 -2.06594,-0.1904c-3.04363,-0.71428 -5.77546,-0.79124 -8.86816,-0.24975c-0.3964,0.06938 -0.80534,0.15248 -0.90875,0.18464c-0.35372,0.11006 -1.79412,0.37836 -2.03127,0.37836c-0.17428,0 -0.29462,-0.03924 -0.36371,-0.10833l-0.35355,-0.35355c-0.21268,-0.21268 0.06034,-0.70823 0.74087,-1.21275c0.49667,-0.36821 0.50326,-0.38939 0.2243,-0.72017c-1.0252,-1.21572 -2.62297,-4.20476 -3.11332,-5.82416c-0.84269,-2.78335 -0.55578,-9.91736 0.43006,-10.69281l0.00001,0.00001c0.30672,-0.24127 1.08555,0.15946 2.54625,1.31011z" fill="url(#color-1)" fill-rule="nonzero" stroke-width="1"></path><path transform="translate(0.55174,0.55174) scale(0.97701,0.97701)" d="M14.9485,14.54966c-1.00904,0.79369 -1.3027,8.09557 -0.44018,10.94441c0.50189,1.6575 2.13726,4.71687 3.18658,5.9612c0.28552,0.33857 0.27878,0.36025 -0.22958,0.73712c-0.92282,0.68413 -1.11353,1.35216 -0.38604,1.35216c0.24273,0 1.71703,-0.27461 2.07907,-0.38726c0.10584,-0.03291 0.5244,-0.11797 0.93013,-0.18898c3.16547,-0.55423 5.96158,-0.47546 9.07683,0.25563c1.50002,0.35204 1.93596,0.3922 2.11455,0.19488c0.23587,-0.26063 -0.02726,-0.69927 -0.73525,-1.22572c-0.51658,-0.38411 -0.52164,-0.40015 -0.23555,-0.73782c0.78606,-0.92782 2.30506,-3.59089 2.86962,-5.03106c0.27295,-0.69619 0.36391,-1.01628 0.60247,-2.11897c0.44287,-2.047 0.16922,-8.07574 -0.42376,-9.33726c-0.32625,-0.69407 -0.59522,-0.68695 -1.68021,0.04439c-3.67807,2.47922 -5.86292,6.38669 -6.27334,11.21941c-0.12945,1.52433 -0.03002,2.60046 0.3394,3.673c0.06998,0.20322 0.11803,0.43415 0.10681,0.51318l-0.0204,0.14375h-1.82819h-1.82819l0.00917,-0.22452c0.00507,-0.12348 0.09962,-0.51318 0.21021,-0.86599c1.20026,-3.83061 -1.27262,-10.77204 -4.83798,-13.5806c-1.49508,-1.17774 -2.29224,-1.5879 -2.60617,-1.34093z" id="path0 1 1" fill="none" fill-rule="evenodd" stroke-width="0"></path><path d="M15.15658,14.76692c0.30672,-0.24129 1.08555,0.15944 2.54626,1.31011c3.4834,2.74399 5.89942,9.52584 4.72676,13.26839c-0.10805,0.3447 -0.20043,0.72543 -0.20538,0.84608l-0.00896,0.21935h3.57233l0.01993,-0.14045c0.01097,-0.07721 -0.03597,-0.30283 -0.10435,-0.50138c-0.36093,-1.04788 -0.45807,-2.09928 -0.3316,-3.58856c0.40098,-4.72162 2.5356,-8.53925 6.12912,-10.96148c1.06004,-0.71453 1.32283,-0.72149 1.64158,-0.04337c0.57934,1.23252 0.84671,7.12267 0.41401,9.12261c-0.23308,1.07734 -0.32195,1.39008 -0.58862,2.07026c-0.55158,1.40706 -2.03567,4.00891 -2.80365,4.9154c-0.27952,0.32991 -0.27457,0.34558 0.23013,0.72086c0.69172,0.51435 0.9488,0.94291 0.71835,1.19755c-0.17448,0.19278 -0.6004,0.15355 -2.06594,-0.1904c-3.04363,-0.71428 -5.77546,-0.79124 -8.86816,-0.24975c-0.3964,0.06938 -0.80534,0.15248 -0.90875,0.18463c-0.35372,0.11005 -1.79413,0.37835 -2.03128,0.37835c-0.71077,0 -0.52444,-0.65267 0.37716,-1.32107c0.49668,-0.3682 0.50326,-0.38938 0.2243,-0.72017c-1.0252,-1.21572 -2.62297,-4.20476 -3.11332,-5.82415c-0.84269,-2.78335 -0.55578,-9.91736 0.43006,-10.6928z" id="path0 1 1" fill="#ffffff" fill-rule="evenodd" stroke-width="0"></path><path d="M2,24c0,-12.15026 9.84974,-22 22,-22c12.15026,0 22,9.84974 22,22c0,12.15026 -9.84974,22 -22,22c-12.15026,0 -22,-9.84974 -22,-22z" id="base 1 5 1" fill="none" fill-rule="nonzero" stroke-width="1"></path><path d="M2,24c0,-12.15026 9.84974,-22 22,-22c12.15026,0 22,9.84974 22,22c0,12.15026 -9.84974,22 -22,22c-12.15026,0 -22,-9.84974 -22,-22z" id="base 1 1 1" fill="none" fill-rule="nonzero" stroke-width="1"></path><g fill="#000000" fill-rule="nonzero" stroke-width="1" font-family="Roboto, sans-serif" font-weight="normal" font-size="14" text-anchor="start"></g><rect x="2" y="2" width="44" height="22" fill="none" fill-rule="nonzero" stroke-width="1"></rect><path d="M2,24v-22h44v22z" fill="none" fill-rule="nonzero" stroke-width="1"></path><path d="M2,24v-22h44v22z" fill="none" fill-rule="nonzero" stroke-width="1"></path><path d="M2,24v-22h44v22z" fill="none" fill-rule="nonzero" stroke-width="1"></path><path d="M2,24v-22h44v22z" fill="none" fill-rule="nonzero" stroke-width="1"></path><g id="svg 1 1" fill="#000000" fill-rule="nonzero" stroke-width="1" font-family="Roboto, sans-serif" font-weight="normal" font-size="14" text-anchor="start"><g id="svgg 1 1"></g></g><rect x="2" y="2" width="44" height="22" fill="none" fill-rule="nonzero" stroke-width="1"></rect><path d="M2,24v-22h44v22z" fill="none" fill-rule="nonzero" stroke-width="1"></path><path d="M2,24v-22h44v22z" fill="none" fill-rule="nonzero" stroke-width="1"></path><path d="M2,24v-22h44v22z" fill="none" fill-rule="nonzero" stroke-width="1"></path><path d="M2,24v-22h44v22z" fill="none" fill-rule="nonzero" stroke-width="1"></path><path d="M24,2c12.15026,0 22,9.84974 22,22h-44c0,-12.15026 9.84974,-22 22,-22z" id="base 1 5 1" fill-opacity="0.1" fill="#000000" fill-rule="nonzero" stroke-width="1"></path></g></svg>