<svg xmlns="http://www.w3.org/2000/svg" class="icon" width="48" height="48"><style>.st0{fill:#fff}</style><path d="M6.4 3.7c-.4.1-1.1.6-1.6 1-.4.3-1 1.3-1.1 1.8-.2.7-.2 33.9 0 34.4.4 1 1.7 2.3 2.6 2.6.4.2 35 .2 35.5 0 .9-.3 2.3-1.7 2.6-2.6.1-.3.1-3.5.1-17.2 0-11 0-16.9-.1-17.2-.1-.2-.3-.6-.6-1-.4-.6-.6-.8-1.2-1.2-.4-.3-.9-.5-1.1-.6-.1-.1-7.6-.1-17.5-.1-13.7 0-17.3 0-17.6.1z"/><path class="st0" d="M9.3 32c1.9 1.2 3.8 1.8 5.7 1.8 2.3 0 3.5-.6 3.5-1.9 0-.9-1-1.6-2.9-2.2-2.4-.8-4.1-1.6-5-2.5S9.3 25 9.3 23.4c0-1.9.8-3.4 2.3-4.5s3.6-1.6 6.1-1.6c1.8 0 3.5.3 5.2.8v4.5c-1.5-.9-3.2-1.3-5-1.3-.9 0-1.6.2-2.2.5s-.8.7-.8 1.3c0 .9.8 1.6 2.5 2.2 1.8.6 3.1 1.1 4 1.6s1.6 1.1 2 1.9.7 1.7.7 2.7c0 2-.8 3.6-2.4 4.7s-3.8 1.7-6.4 1.7c-2.1 0-4.1-.3-5.9-1V32zM40 12.8c-.8-.3-1.5-.5-2.2-.5-1.9 0-2.9 1.1-2.9 3.2v2.2h4.4V22h-4.4v15.2h-5.7V22h-3.3v-4.2h3.3v-2.5c0-2.2.7-4 2.2-5.3s3.3-2 5.7-2c1.2 0 2.2.1 3 .4v4.4z"/></svg>