<svg xmlns="http://www.w3.org/2000/svg" width="48" height="48"><defs><linearGradient x1="14.23" y1="14.675" x2="34.124" y2="33.679" gradientUnits="userSpaceOnUse" id="a"><stop offset="1" stop-opacity="0"/><stop offset="1" stop-opacity="0"/></linearGradient></defs><g fill="none" fill-rule="none" stroke-width="none" stroke-miterlimit="10" font-family="none" font-weight="none" font-size="none" text-anchor="none" style="mix-blend-mode:normal"><path d="M2 24C2 11.85 11.85 2 24 2s22 9.85 22 22-9.85 22-22 22S2 36.15 2 24z" fill="#1976d2" fill-rule="nonzero"/><path d="M18.193 31.637c.28.331.273.352-.224.72-.484.36-.762.714-.806.965.024.002.05.003.075.003.238 0 1.678-.268 2.032-.378.103-.032.512-.116.908-.185 3.093-.541 5.825-.464 8.869.25 1.465.344 1.891.383 2.066.19.141-.156.099-.379-.116-.647a4.903 4.903 0 00-.25-.197 3.347 3.347 0 01-.33-.263l-.353-.354c-.15-.15-.094-.229.1-.457.768-.907 2.252-3.508 2.804-4.916.266-.68.355-.992.588-2.07.433-2 .166-7.89-.414-9.122a2.62 2.62 0 00-.066-.133c-.246-.068-.594.107-1.222.53-3.593 2.422-5.728 6.24-6.129 10.961-.126 1.49-.03 2.54.332 3.589.068.198.115.424.104.5l-.02.141H22.57l-.354-.353.01-.22c.004-.12.097-.5.205-.846 1.063-3.395-.826-9.292-3.787-12.406a8.445 8.445 0 00-.587-.508c-1.46-1.151-2.24-1.552-2.546-1.31-.986.775-1.273 7.909-.43 10.692.49 1.62 2.088 4.609 3.113 5.824zm-.49-15.56c.26.206.516.434.764.682l.353.353c3.062 3.062 5.048 9.125 3.963 12.587a7.162 7.162 0 00-.186.712h3.19l.02-.14c.011-.078-.035-.303-.104-.502-.36-1.048-.458-2.1-.331-3.589.4-4.721 2.535-8.539 6.129-10.961.8-.54 1.147-.676 1.405-.417l.354.353c.084.084.158.209.236.374.58 1.233.847 7.123.414 9.123-.233 1.077-.322 1.39-.589 2.07-.551 1.407-2.035 4.009-2.803 4.915-.13.153-.198.238-.185.323l.061.045c.178.132.328.259.447.379l.354.353c.344.345.442.63.271.819-.174.193-.6.153-2.066-.19-3.044-.715-5.775-.792-8.868-.25-.396.069-.805.152-.909.184-.354.11-1.794.379-2.031.379-.174 0-.295-.04-.364-.109l-.353-.353c-.213-.213.06-.708.74-1.213.497-.368.504-.39.225-.72-1.025-1.216-2.623-4.205-3.113-5.824-.843-2.784-.556-9.918.43-10.693.306-.241 1.085.16 2.546 1.31z" fill="url(#a)" fill-rule="nonzero"/><path d="M15.157 14.767c-.986.775-1.273 7.91-.43 10.693.49 1.62 2.088 4.608 3.113 5.824.279.33.272.352-.224.72-.902.668-1.088 1.321-.378 1.321.238 0 1.678-.268 2.032-.378.103-.032.512-.116.908-.185 3.093-.541 5.825-.464 8.869.25 1.465.344 1.891.383 2.065.19.23-.254-.026-.683-.718-1.197-.505-.376-.51-.391-.23-.721.768-.907 2.252-3.508 2.804-4.916.266-.68.355-.992.588-2.07.433-2 .166-7.89-.414-9.122-.319-.678-.581-.672-1.641.043-3.594 2.422-5.728 6.24-6.13 10.961-.126 1.49-.029 2.541.332 3.589.069.199.115.424.104.501l-.02.14h-3.572l.01-.219c.004-.12.097-.5.205-.846 1.172-3.742-1.244-10.524-4.727-13.268-1.46-1.15-2.24-1.551-2.546-1.31z"/><path d="M15.157 14.767c.306-.241 1.085.16 2.546 1.31 3.483 2.744 5.9 9.526 4.727 13.268-.108.345-.2.726-.206.847l-.009.219h3.573l.02-.14c.01-.078-.036-.303-.105-.502-.36-1.048-.458-2.1-.331-3.589.4-4.721 2.535-8.539 6.129-10.961 1.06-.715 1.323-.722 1.641-.043.58 1.232.847 7.122.414 9.122-.233 1.078-.322 1.39-.588 2.07-.552 1.408-2.036 4.01-2.804 4.916-.28.33-.275.345.23.72.692.515.949.944.718 1.198-.174.193-.6.154-2.065-.19-3.044-.714-5.776-.791-8.869-.25-.396.07-.805.153-.908.185-.354.11-1.794.378-2.032.378-.71 0-.524-.653.378-1.321.496-.368.503-.39.224-.72-1.025-1.216-2.623-4.205-3.114-5.824-.842-2.784-.555-9.918.43-10.693z" fill="#fff" fill-rule="evenodd"/><path d="M2 24C2 11.85 11.85 2 24 2s22 9.85 22 22-9.85 22-22 22S2 36.15 2 24z"/><path d="M2 24C2 11.85 11.85 2 24 2s22 9.85 22 22-9.85 22-22 22S2 36.15 2 24z"/><path d="M2 2h44v22H2z"/><path d="M2 24V2h44v22z"/><path d="M2 24V2h44v22z"/><path d="M2 24V2h44v22z"/><path d="M2 24V2h44v22z"/><path d="M2 2h44v22H2z"/><path d="M2 24V2h44v22z"/><path d="M2 24V2h44v22z"/><path d="M2 24V2h44v22z"/><path d="M2 24V2h44v22z"/><path d="M24 2c12.15 0 22 9.85 22 22H2C2 11.85 11.85 2 24 2z" fill-opacity=".1" fill="#000" fill-rule="nonzero"/></g></svg>